<?xml version="1.0" encoding="utf-8"?>
<!-- Generator: Adobe Illustrator 27.5.0, SVG Export Plug-In . SVG Version: 6.00 Build 0)  -->
<svg version="1.1" xmlns="http://www.w3.org/2000/svg" xmlns:xlink="http://www.w3.org/1999/xlink" x="0px" y="0px"
	 viewBox="0 0 1200 1200" style="enable-background:new 0 0 1200 1200;" xml:space="preserve">
<g id="Background">
	<radialGradient id="SVGID_1_" cx="-246.5892" cy="-137.9736" r="1341.5692" gradientUnits="userSpaceOnUse">
		<stop  offset="0" style="stop-color:#C5FFFC"/>
		<stop  offset="0.3305" style="stop-color:#9CD9E9"/>
		<stop  offset="0.7784" style="stop-color:#6AA9D2"/>
		<stop  offset="0.9993" style="stop-color:#5697C9"/>
	</radialGradient>
	<rect style="fill:url(#SVGID_1_);" width="1200" height="1200"/>
</g>
<g id="Graphic_Element">
	<g>
		<g>
			
				<linearGradient id="SVGID_00000038412357104746813600000008280561932314958496_" gradientUnits="userSpaceOnUse" x1="167.6344" y1="501.3341" x2="826.6789" y2="501.3341">
				<stop  offset="0" style="stop-color:#FFFFFF;stop-opacity:0.2"/>
				<stop  offset="0.0881" style="stop-color:#FFFFFF;stop-opacity:0.5"/>
				<stop  offset="1" style="stop-color:#FFFFFF"/>
			</linearGradient>
			<path style="fill:url(#SVGID_00000038412357104746813600000008280561932314958496_);" d="M915.371,271.208
				c-29.373,0-54.687,19.945-61.569,48.501l-17.184,71.336H394.313c-19.563,0-37.711,8.82-49.794,24.199
				c-12.088,15.379-16.369,35.101-11.741,54.108l52.025,213.756c6.924,28.471,32.229,48.354,61.531,48.354H729.54
				c29.301,0,54.606-19.883,61.53-48.354l18.135-74.514l0.003,0.001l0.325-1.351l52.62-216.199h-0.541l15.813-65.645
				c4.238-17.6,19.843-29.892,37.944-29.892H990v-24.299H915.371z M767.465,677.36c-4.271,17.548-19.866,29.802-37.924,29.802
				H446.333c-18.058,0-33.653-12.254-37.924-29.802l-52.025-213.753c-2.847-11.716-0.209-23.872,7.238-33.349
				c7.451-9.478,18.637-14.914,30.692-14.914h436.452l-32.221,133.761H481.107v24.299h311.585l-7.107,29.5l0,0L767.465,677.36z"/>
			
				<linearGradient id="SVGID_00000066514584462114028490000000002054802813137829_" gradientUnits="userSpaceOnUse" x1="682.9639" y1="829.9005" x2="816.5706" y2="829.9005">
				<stop  offset="0" style="stop-color:#FFFFFF;stop-opacity:0.2"/>
				<stop  offset="0.0881" style="stop-color:#FFFFFF;stop-opacity:0.5"/>
				<stop  offset="1" style="stop-color:#FFFFFF"/>
			</linearGradient>
			<path style="fill:url(#SVGID_00000066514584462114028490000000002054802813137829_);" d="M749.767,763.097
				c-36.838,0-66.803,29.968-66.803,66.803s29.966,66.803,66.803,66.803c36.838,0,66.803-29.968,66.803-66.803
				S786.605,763.097,749.767,763.097z M749.767,872.405c-23.435,0-42.504-19.067-42.504-42.504
				c0-23.438,19.069-42.504,42.504-42.504c23.435,0,42.504,19.066,42.504,42.504C792.272,853.338,773.202,872.405,749.767,872.405z"
				/>
			
				<linearGradient id="SVGID_00000097498541988304923840000016700306683128272045_" gradientUnits="userSpaceOnUse" x1="359.3029" y1="829.9005" x2="492.9096" y2="829.9005">
				<stop  offset="0" style="stop-color:#FFFFFF;stop-opacity:0.2"/>
				<stop  offset="0.0881" style="stop-color:#FFFFFF;stop-opacity:0.5"/>
				<stop  offset="1" style="stop-color:#FFFFFF"/>
			</linearGradient>
			<path style="fill:url(#SVGID_00000097498541988304923840000016700306683128272045_);" d="M426.106,763.097
				c-36.838,0-66.803,29.968-66.803,66.803s29.966,66.803,66.803,66.803s66.803-29.968,66.803-66.803
				S462.944,763.097,426.106,763.097z M426.106,872.405c-23.435,0-42.504-19.067-42.504-42.504
				c0-23.438,19.069-42.504,42.504-42.504c23.435,0,42.504,19.066,42.504,42.504C468.611,853.338,449.541,872.405,426.106,872.405z"
				/>
		</g>
		
			<radialGradient id="SVGID_00000067916126347349792830000009734930656706495126_" cx="3405.8298" cy="-1531.2988" r="265.6869" gradientTransform="matrix(0.7965 0.1998 0.1257 0.5987 -2095.9805 948.9702)" gradientUnits="userSpaceOnUse">
			<stop  offset="0" style="stop-color:#FFFFFF"/>
			<stop  offset="0.2386" style="stop-color:#EEEEEE;stop-opacity:0.7033"/>
			<stop  offset="0.5001" style="stop-color:#E3E3E3;stop-opacity:0.378"/>
			<stop  offset="0.8041" style="stop-color:#E0E0E0;stop-opacity:0"/>
		</radialGradient>
		<path style="fill:url(#SVGID_00000067916126347349792830000009734930656706495126_);" d="M635.91,765.729
			c18.435,87.841-61.372,135.293-178.253,105.988c-116.881-29.306-226.575-124.272-245.01-212.112
			c-18.434-87.84,61.373-135.293,178.253-105.987C507.782,582.923,617.476,677.888,635.91,765.729z"/>
		
			<radialGradient id="SVGID_00000091730236688861040600000013063991908712073880_" cx="13878.0234" cy="-18683.375" r="265.7021" gradientTransform="matrix(0.0267 0.8207 -0.5411 0.2853 -9637.8955 -5643.1089)" gradientUnits="userSpaceOnUse">
			<stop  offset="0" style="stop-color:#FFFFFF"/>
			<stop  offset="0.2386" style="stop-color:#EEEEEE;stop-opacity:0.7033"/>
			<stop  offset="0.5001" style="stop-color:#E3E3E3;stop-opacity:0.378"/>
			<stop  offset="0.8041" style="stop-color:#E0E0E0;stop-opacity:0"/>
		</radialGradient>
		<path style="fill:url(#SVGID_00000091730236688861040600000013063991908712073880_);" d="M849.333,634.285
			c-79.398,41.854-146.947-21.849-150.874-142.284c-3.927-120.435,57.255-251.995,136.653-293.849
			c79.398-41.853,146.946,21.85,150.874,142.284C989.912,460.871,928.731,592.431,849.333,634.285z"/>
	</g>
</g>
</svg>
